<?xml version="1.0" encoding="UTF-8"?>
<svg id="Layer_1" xmlns="http://www.w3.org/2000/svg" version="1.1" xmlns:xlink="http://www.w3.org/1999/xlink" viewBox="0 0 1081 713.8">
  <!-- Generator: Adobe Illustrator 29.1.0, SVG Export Plug-In . SVG Version: 2.1.0 Build 142)  -->
  <defs>
    <style>
      .st0 {
        fill: #423565;
      }

      .st1 {
        fill: #353b6e;
      }

      .st2 {
        fill: #fff;
      }

      .st3 {
        fill: #404884;
      }

      .st4 {
        fill: #878f8c;
      }

      .st5 {
        fill: none;
      }

      .st6 {
        fill: #08314d;
      }

      .st7 {
        fill: #272e56;
      }

      .st8 {
        fill: #85a0b3;
      }

      .st9 {
        fill: #e06a00;
      }

      .st10 {
        fill: #47708c;
      }

      .st11 {
        fill: #ddd;
      }

      .st12 {
        fill: #e88f3f;
      }

      .st13 {
        fill: #062134;
      }

      .st14 {
        fill: #ffd5c0;
      }

      .st15 {
        clip-path: url(#clippath);
      }

      .st16 {
        opacity: .5;
      }

      .st17 {
        fill: #ad3a12;
        isolation: isolate;
        opacity: .5;
      }

      .st18 {
        fill: #afafaf;
      }
    </style>
    <clipPath id="clippath">
      <rect class="st5" x="14.5" y="0" width="1280" height="800"/>
    </clipPath>
  </defs>
  <g id="Layer_2">
    <g id="Vela_UI_Temaplates">
      <g id="Working_-_Web">
        <g class="st15">
          <g id="Working">
            <g id="Plants-3">
              <path id="Path_1070" class="st9" d="M333.6,462.4s60.7-80.8,13.8-146.4c-46.9-65.6-38.9-67.1-40.6-109.2-1.7-42-10.8-85.5-45.7-99-34.9-13.5-14.8-44.1-64.1-47.4,0,0,28,66.5,16.6,99.9s-8.8,95,13.2,121.7c21.9,26.7,53.4,64.9,48.6,110.6-4.8,45.7,38.2,69.9,58.1,69.8Z"/>
              <path id="Path_1071" class="st2" d="M326.4,483.4c4.8-18.7,6.6-38.1,5.2-57.4-.7-9.6-2.4-19.1-4.9-28.4l-1-3.5c-.3-1.2-.8-2.3-1.1-3.4l-1.1-3.4-.6-1.7c-.2-.6-.4-1.1-.7-1.7l-2.7-6.7c-.9-2.2-2-4.3-3.2-6.4-1.2-2.1-2.5-4.1-3.8-6.1-1.3-2-2.6-4.1-3.9-6.1-2.6-4.1-5-8.3-7.4-12.5-4.9-8.3-9.7-16.7-14.6-25.1-4.8-8.4-9.6-16.8-14.1-25.4-4.6-8.6-8.7-17.4-12.4-26.3l-1.3-3.4c-.4-1.1-.8-2.3-1.2-3.5s-.8-2.3-1.2-3.5l-1-3.5-.5-1.8-.4-1.8-.9-3.5c-.3-1.2-.5-2.4-.7-3.6s-.5-2.4-.6-3.6c-1.6-9.6-1.8-19.5-.6-29.2.7-4.8,1.7-9.6,3.1-14.3,1.4-4.7,3-9.2,4.2-13.9.6-2.3,1.1-4.6,1.5-7,.4-2.3.6-4.7.6-7.1,0-2.4-.2-4.7-.5-7.1-.3-2.4-.8-4.7-1.5-7-2.4-9.3-7-17.8-12-26s-10.4-16.2-15.8-24.3-10.8-16-16.3-24-11.1-15.8-16.8-23.6c5.9,7.6,11.6,15.4,17.3,23.3,5.6,7.9,11.2,15.8,16.7,23.7,2.8,4,5.5,8,8.2,12,2.7,4,5.4,8,7.9,12.2s5,8.3,7.2,12.7c2.2,4.4,4,8.9,5.3,13.6.7,2.4,1.2,4.8,1.6,7.2.4,2.4.6,4.9.6,7.4,0,2.5-.2,4.9-.6,7.4-.4,2.4-.9,4.8-1.6,7.2-1.3,4.7-2.9,9.3-4.2,13.9-1.3,4.6-2.4,9.3-3,14-1.1,9.5-.9,19.1.8,28.6,1.6,9.5,4.2,18.7,7.9,27.6,3.6,8.9,7.7,17.7,12.2,26.2,4.5,8.5,9.2,17,13.9,25.4s9.6,16.8,14.5,25.1c2.4,4.2,4.9,8.3,7.4,12.5,1.2,2.1,2.5,4.1,3.8,6.2s2.6,4.1,3.8,6.2c1.2,2.1,2.3,4.3,3.2,6.6l2.7,6.8c.2.6.5,1.1.6,1.7l.6,1.7,1.1,3.5c.4,1.2.8,2.3,1.1,3.5l.9,3.5c2.5,9.4,4,19,4.6,28.7.6,9.7.3,19.4-.8,29l-.4,3.6c-.1,1.2-.4,2.4-.5,3.6-.3,2.4-.8,4.8-1.2,7.2-.9,4.8-2,9.5-3.3,14.1Z"/>
              <path id="Path_1072" class="st8" d="M411.9,566.4s9.8-69.9-58.6-111.4c-68.5-41.4-115.1-62.7-127.7-121.7-12.6-59-32.2-93.7-67.7-110.4-35.5-16.7-33.9-30.5-61.3-43.1s-74.8-18-74.8-18c0,0,79.2,55.5,86,113.3s25.7,95.4,62.4,123.7c36.7,28.2,54.4,105.2,129,121,74.7,15.8,112.6,46.8,112.6,46.8Z"/>
              <path id="Path_1073" class="st2" d="M414,576.3c-3.2-12.1-7.9-23.8-13.8-34.8-5.9-11-13.3-21.2-22.1-30.1-2.2-2.2-4.4-4.4-6.8-6.4s-4.8-4-7.3-5.9c-5-3.7-10.3-7.1-15.7-10.2l-32.4-18.9c-10.8-6.3-21.6-12.7-32.3-19.2-5.4-3.2-10.7-6.5-16-9.9-5.3-3.3-10.5-6.8-15.6-10.5-10-7.6-19.3-16.1-27.7-25.5-1.1-1.1-2.1-2.4-3.1-3.6l-3-3.6-2.9-3.7c-1-1.2-1.9-2.5-2.9-3.8-1.8-2.5-3.7-5.1-5.4-7.7-.9-1.3-1.8-2.6-2.6-3.9l-2.5-4c-6.7-10.6-12.5-21.8-18.1-32.9s-11.2-22.4-15.7-34.2c-2.3-5.9-4.2-11.8-5.9-17.9s-3.1-12.1-4.9-18.1c-3.7-11.9-9.2-23.2-16.3-33.4-7.1-10.3-15.5-19.6-24.9-27.8-9.5-8.2-19.7-15.4-30.5-21.6l-4-2.4-4.2-2.2-4.1-2.2c-1.4-.7-2.7-1.5-4.2-2.1l-8.5-4-2.1-1-2.2-.9-4.4-1.8-4.3-1.8c-.7-.3-1.4-.6-2.2-.9l-2.2-.8-8.8-3.2c-2.9-1.1-5.9-2-8.9-3l-8.9-2.9,9,2.8c3,1,6,1.8,8.9,2.9l8.8,3.2,2.2.8c.7.3,1.4.6,2.2.9l4.3,1.8,4.3,1.8,2.2.9,2.1,1,8.5,3.9c1.4.6,2.8,1.4,4.2,2.1l4.2,2.2,4.2,2.2,4.1,2.3c10.9,6.2,21.2,13.4,30.8,21.6,9.5,8.2,18,17.5,25.2,27.9,7.3,10.3,12.9,21.6,16.6,33.7,1.8,6,3.2,12.1,5,18.1s3.6,11.9,5.9,17.8c4.5,11.6,10.2,22.8,15.7,34s11.5,22.2,18.1,32.8l2.5,4c.8,1.3,1.7,2.6,2.6,3.9,1.7,2.6,3.6,5.1,5.4,7.6.9,1.3,1.9,2.5,2.8,3.7l2.9,3.7,3,3.6c1,1.2,2,2.4,3.1,3.5,8.3,9.3,17.5,17.8,27.4,25.3,5,3.7,10.3,7.1,15.5,10.5s10.6,6.6,15.9,9.9c10.7,6.5,21.4,12.9,32.2,19.3l32.3,19.1c5.4,3.1,10.7,6.6,15.8,10.3,2.5,1.9,4.9,3.9,7.3,6,2.4,2.1,4.6,4.3,6.8,6.5,8.7,9.1,16,19.3,21.8,30.4,5.8,11.1,10.3,22.9,13.4,35Z"/>
              <path id="Path_1074" class="st12" d="M271.2,532.8c-13-24.9-43.6-49-90.7-48.7s-72.7-31.4-86-58.8c-13.2-27.5-50.5-61.3-50.5-61.3,0,0,.5.1,1.4.3h.6c4.5.9,16.5,2.8,37.2,3.8,26.8,1.3,43.7,30.2,67.6,32.2s43.6,9.1,64,22.7,35.7,20,77,18.3,85.7,68.9,85.7,68.9c0,2.4-.2,4.8-.4,7,0,0,0,.1,0,.2-7.2,63.5-93,40.2-106,15.4Z"/>
              <path id="Path_1075" class="st2" d="M377.1,517.3c-11.6-2.3-23.1-5.1-34.4-8.5-15.7-4.7-31-10.5-45.8-17.4-7.4-3.4-14.7-7.2-21.8-11.2s-14.3-7.8-21.7-11.3-14.9-6.5-22.6-9.3c-7.6-2.8-15.4-5.2-23.3-7.2-4-.9-7.9-1.7-11.9-2.4s-8.1-1.3-12.1-2.3c-4-1-7.9-2.3-11.7-3.8-1.9-.8-3.8-1.6-5.7-2.4l-5.6-2.6c-7.4-3.6-14.4-7.9-21-12.8-6.6-4.8-12.8-10.1-19.2-15.2-12.7-10.2-26.1-19.6-40.1-28-11.2-6.8-22.7-13-34.6-18.7h.6c11.7,5.5,23.2,11.5,34.4,18.1,14.1,8.3,27.6,17.6,40.4,27.7l9.6,7.6,4.8,3.8c1.6,1.2,3.2,2.5,4.9,3.7,6.6,4.8,13.5,9,20.8,12.6l5.5,2.6c1.9.8,3.7,1.6,5.6,2.3,3.8,1.5,7.6,2.8,11.5,3.8,3.9,1,7.9,1.6,12,2.3s8.1,1.5,12.1,2.4c7.9,2,15.8,4.5,23.5,7.3,7.7,2.8,15.3,5.9,22.7,9.4s14.6,7.4,21.7,11.4,14.4,7.8,21.7,11.2c14.7,7,29.9,12.9,45.5,17.8,11.3,3.5,22.7,6.5,34.2,9,0,0,0,.1,0,.2Z"/>
            </g>
            <g id="Person-5">
              <g id="Group_590">
                <path id="Path_1076" class="st7" d="M580.9,424s48-45.2,48.4-71.2l-43.9-9.1s-13.8,53-4.5,80.3Z"/>
                <path id="Path_1077" class="st14" d="M631.8,367.4c8.6,13.8,43.6,70.9,64.9,89.6,21.3,18.7,60.4,25.1,48,60.4-12.3,35.3-55.3-20-66.6-29.9-11.3-9.8-89.2-51.3-108.2-91.4-7.7-16.2-7.3-24.8-8.7-38-3.9-36.5,17.4-63.3,42.1-39.1.3.3,19.9,34.6,28.4,48.4Z"/>
                <path id="Path_1078" class="st3" d="M567.8,213.9s13.9-5.7,26.5,35.3,35.3,104,35.3,104c0,0-46,25.6-48.6,70.8,0,0-45.9-69.5-57.2-99.2-11.3-29.6-17-119.7,44.1-110.9Z"/>
              </g>
              <path id="Union_1" class="st1" d="M325.8,202.9c1.9-7.1,6.8-13.1,14-14.7,36.4-8.2,112.9-41.5,157.8-16.5,37.9,21.1,74.8,40.8,82.6,47.3,1.7,1.4,2.2,3.7,1.3,5.7-36.9,86.4-91.4,263.5-91.4,263.5-25.2-.6-214.1,21.4-214.1,21.4-15.4-54,7.6-144.8,49.8-306.7Z"/>
              <g id="Desk">
                <path id="Path_1080" class="st13" d="M1034.5,510.6l-134.1-118.1-702.6,133.8-60.2-15.1v26.6l163.6,167.3,762.8-168.1v-25.4l-29.7-1.1Z"/>
                <path id="Path_1081" class="st8" d="M1064,511.7l-164.4-144.9-762.7,145.3,163.6,167.4,763.5-167.8Z"/>
              </g>
              <g id="Mouse">
                <path id="Path_1082" class="st18" d="M526.4,581.6c5.7-1.2,9.4-6.9,8.2-12.6-.3-1.6-1.1-3.1-2.1-4.4-5.9-7.5-12.4-14.6-19.5-21-7.8-6.6-16.8-11.6-26.5-14.8l-35.8,7.8,46,46.3c2.5,2.6,6.2,3.7,9.8,2.9l19.9-4.3Z"/>
                <g id="Group_591">
                  <path id="Path_1083" class="st11" d="M519,582.4c-.4,0-.7-.2-.8-.6,0-.2-5.3-15.7-15.3-23.9-.4-.3-.4-.9,0-1.2.3-.3.8-.4,1.2-.1h0c10.4,8.5,15.6,24,15.8,24.7.1.5,0,.9-.5,1.1,0,0-.2,0-.3,0h0Z"/>
                </g>
              </g>
              <g id="Group_593">
                <path id="Path_1084" class="st7" d="M262.8,401.7s67.7-76.8,93.1-5.4c0,0-56.6,22.6-93.1,5.4"/>
                <path id="Path_1085" class="st14" d="M336,346s2.8,30.6,12.8,43.5c9.9,12.9,88.8,102.3,112,118.7,23.2,16.4,62.6,18.8,54,55.1s-57-14.3-69.3-22.9c-12.3-8.6-134.2-73.6-157.3-111.5-9.3-15.3-7.8-28.4-10.6-41.4-7.6-35.9,30.3-63.8,57.4-42.3l1,.8Z"/>
                <path id="Path_1086" class="st3" d="M367.1,195.5c10.7,8.5,14.1,21.5,16.5,34.7,3.7,19.8,2.6,48.6-27.6,166.2,0,0-67.6-8.2-93.1,5.4,0,0,7.6-92.1,34-151.1,8.4-18.8,15.3-38.8,29.1-54.5,2.7-3.1,8.4-6.9,14.8-6.9,12,0,23.1,3.8,26.3,6.3Z"/>
              </g>
              <g id="Group_594">
                <path id="Path_1087" class="st0" d="M543.3,69.1l.4-.4c2.4-2.7,3.9-6,5.7-9.1,1.8-3.1,3.6-6.6,4-10.4.6-5.2-.7-11.8-2.5-16.8-1.9-5.1-5.8-9.2-10.8-11.5-12.8-6-29.5-4.1-44.5,3.1-15,7.2-47.8,5.1-45.4,43.8s33.1,41.8,30.2,54.1l24.4-21c9.3-7.6,18.7-15.1,27.9-22.9,3.5-2.9,7.6-5.6,10.7-9Z"/>
                <path id="Path_1088" class="st14" d="M544.5,62.3s24,74.2-20.8,70.1c-27.8-2.6-37.9-23.5-37.9-23.5,0,0-9.7,3.1-10.9-16.7-.7-11.8,14-18.1,14.7.3,0,0,10.6,3.2,12.6-12.4,2-15.7,10.2-15,19.1-12.3s21.8-.7,23.2-5.4Z"/>
                <path id="Path_1089" class="st14" d="M482.6,106.4s-11,36.5-20.7,51c0,0-14.8,6.3-24.2,6.1s5,56,62.8,49.9c32.2-3.4,12.3-33.5,12.3-33.5,0,0-8.1-6.4-7.4-9.2.7-2.7,13.9-42.7,13.9-42.7,0,0,.3-35.5-36.7-21.7Z"/>
              </g>
            </g>
            <g id="Keyboard">
              <path id="Path_1091" class="st10" d="M758.3,459.4l-34.7-30.6c-2.7-2.3-6.3-3.3-9.8-2.7l-232.9,44.4c-6.2,1.2-10.3,7.2-9.1,13.5.4,2.2,1.5,4.3,3.1,5.9l36.2,37c2.8,2.9,6.8,4.1,10.7,3.2l231.4-50.8c6.2-1.4,10.1-7.5,8.8-13.7-.5-2.4-1.8-4.6-3.7-6.2h0Z"/>
            </g>
            <g id="Computer">
              <path id="Path_1092" class="st13" d="M776.8,533.2l-11.8-10.4c-1.1-.9-2.5-1.3-3.9-1.1l-83.7,15.9c-2.5.5-4.1,2.9-3.6,5.4.2.9.6,1.7,1.2,2.3l12.5,12.8c1.1,1.1,2.7,1.6,4.3,1.3l83-18.2c2.5-.5,4-3,3.5-5.4-.2-1-.7-1.8-1.5-2.5h0Z"/>
              <path id="Path_1093" class="st11" d="M829.7,476.2l-210.5,46.3c-12.6,2.8-25.1-5.2-27.8-17.8-.7-3-.7-6.1-.2-9.1l36.9-207.8c1.7-9.3,8.8-16.7,18-18.7l210.5-46.3c12.6-2.8,25.1,5.2,27.8,17.8.7,3,.7,6.1.2,9.1l-36.9,207.8c-1.6,9.3-8.7,16.7-18,18.7Z"/>
              <path id="Path_1094" class="st18" d="M779.2,452.4l-7.7-5.4-54.2,11.9-21,82.3,7.8,5.1c15.3-3.4,46.5-17.1,46.5-17.1l17.7-69.6,1.8,1.1,9.2-8.4Z"/>
              <path id="Path_1095" class="st11" d="M758.2,534.7l-54.2,11.9,21-82.3,54.2-11.9-21,82.3Z"/>
            </g>
            <g id="Cup">
              <g id="Group_604">
                <g id="Group_595">
                  <path id="Path_1096" class="st13" d="M418.5,598.2c-.4,11.3-24.8,20.3-54.5,20.2s-53.4-9.4-53-20.7,24.9-20.3,54.5-20.2,53.5,9.4,53,20.7Z"/>
                </g>
                <g id="Group_603">
                  <g id="Group_597">
                    <g id="Group_596">
                      <path id="Path_1097" class="st6" d="M345.2,580.6h0c-.3-.4-.6-.7-.9-1-.7-.6-1.4-1-2.2-1.3-1.3-.5-2.7-1-4-1.5-2.9-1.1-5.7-2.5-8.4-4-4.7-2.7-13.8-7.9-14.9-13.3-.9-4.6,3.4-9.3,8.5-6.9,2.6,1.2,4.4,4.5,7,6,9.5,5.3,6.2-9.8,2.7-13.3-3.2-3.3-8.5-4.5-13.1-4.2-12,.7-16,10.8-14.5,19.3,1.5,8.1,8.4,14.4,15.5,19,3.5,2.2,7.1,4.1,10.9,5.6,3.9,1.6,7.9,3.3,12,1.9,1.9-.5,3-2.5,2.5-4.4-.2-.7-.6-1.3-1.1-1.8Z"/>
                    </g>
                  </g>
                  <path id="Path_1098" class="st6" d="M401.4,597.6l.9-57.7-.3-11.6c0-3.2-2.1-6.4-4.8-8.5-6-4.8-14.4-5.7-21.8-6.4-6.9-.6-13.8-.6-20.7,0-7.3.8-15.8,1.7-21.8,6.4-2.7,2.1-4.8,5-4.8,8.5l.9,69.2s6,11.7,33.8,11.7c29.5,0,38.7-11.6,38.7-11.6Z"/>
                  <g id="Group_598">
                    <path id="Path_1099" class="st10" d="M328.1,533.5v9.3c2.8,2.9,11.6,9.8,34.5,9.8s36.6-7.6,39.6-10.2v-2.5l-.2-6.6c-3.2,2.7-14.2,10.1-39.5,10.1-23.1,0-31.9-7-34.5-9.9Z"/>
                    <path id="Path_1100" class="st10" d="M401.5,590.4v-9.3c-3.5,2.9-14.7,9.7-38.9,9.7s-30.7-6.1-33.9-9.3v9.3c3.4,3.2,12.5,9.2,33.9,9.2,23.9,0,35-6.6,38.9-9.6Z"/>
                    <path id="Path_1101" class="st10" d="M362.6,575.9c24.7,0,35.8-7.1,39.2-9.9v-9.3c-3.1,2.8-14.2,10-39.2,10s-31.3-6.6-34.2-9.6v9.3c3.1,3.1,12.1,9.5,34.2,9.5Z"/>
                  </g>
                  <g id="Group_602">
                    <g id="Group_601">
                      <path id="Path_1102" class="st2" d="M366.3,515.3c-41,0-35.7,11.2-35.2,12,0,.1.4-.1.7-.5,1,2.1,4.2,3.7,7.7,4.9,8.7,3,20.3,4.1,30.6,3.7,4-.1,8-.6,11.9-1.3,0,0,0,0,0,.1,1.6-.3,3.2-.7,4.7-1.1,4.1-1.2,8.3-2.6,10.8-4.7.4-.3.8-.7,1.1-1.2.5.5,1.1.9,1.4.6,0,0,7.3-12.6-33.7-12.6Z"/>
                      <g id="Group_600">
                        <g id="Group_599">
                          <path id="Path_1103" class="st4" d="M398.1,527.2c-2,4.2-10.3,6.1-15.4,8.4-.1,0-.2.1-.2.3,1.6-.3,3.2-.8,4.8-1.2,4.1-1.3,8.4-2.8,11-5.1s1.9-4.4-.4-6.2c.7,1.1.8,2.6.2,3.8Z"/>
                        </g>
                        <path id="Path_1104" class="st6" d="M365,514.6c-19.9,0-36,5.1-36,11.4s16.1,12.3,36,12.3,36-4.6,36-12.3-16.1-11.4-36-11.4ZM365,534.9c-18.2,0-32.9-4.3-32.9-9.7s14.8-9.7,32.9-9.7,33,4.3,33,9.7-14.8,9.7-33,9.7Z"/>
                      </g>
                    </g>
                  </g>
                </g>
              </g>
              <g id="Group_605" class="st16">
                <path id="Path_1105" class="st4" d="M353,471.7s11.2,6.2,6,13.9c-3,4.4-3,10.2,0,14.6-.8-1.1-.5-3.3-.5-4.5.1-2.9.9-5.8,2.4-8.3,1-1.8,2.6-3.4,2.8-5.3.4-3.3-3.1-5.9-6.3-7.8-1.5-.9-3-1.8-4.5-2.6Z"/>
                <path id="Path_1106" class="st4" d="M365.1,476.9s4.9,4,1.6,7.8c-1.9,2.2-2.1,5.4-.4,7.8-.2-.8-.2-1.7,0-2.5.3-1.6.9-3.1,1.9-4.4.8-.8,1.5-1.7,1.9-2.7.5-1.8-1.2-3.3-2.8-4.5-.7-.5-1.5-1.1-2.2-1.6Z"/>
                <path id="Path_1107" class="st4" d="M359.6,500.3s3.8,3,1.2,6c-1.5,1.7-1.6,4.2-.3,6-.2-.6-.1-1.3,0-1.9.2-1.2.7-2.4,1.5-3.3.6-.6,1.1-1.3,1.5-2.1.4-1.3-1-2.5-2.1-3.4-.6-.5-1.1-.9-1.7-1.3Z"/>
                <path id="Path_1108" class="st4" d="M364.3,485.3s-4.9,9-1.1,14.5c3.6,5.2-.5,8.3-.5,8.3,0,0,6.5-2.3,3-8.1-4.4-7.2-1.4-14.7-1.4-14.7Z"/>
              </g>
            </g>
            <g id="Plant-3">
              <ellipse id="Ellipse_64" class="st1" cx="931.7" cy="395.2" rx="57.9" ry="4.8"/>
              <path id="Path_1109" class="st13" d="M989.3,402.2l-57.5,3.8-57.5-3.8s-6.4,41.4,31.7,93.5c1,1.4,2.5,2.4,4.2,2.9,4.4,1.3,13.5,3.6,21.6,3.4,8.2.2,17.3-2.1,21.6-3.4,1.7-.5,3.1-1.5,4.2-2.9,38.1-52.1,31.7-93.5,31.7-93.5Z"/>
              <path id="Path_1110" class="st8" d="M868.1,250.2c1.3,4.6.3,10.9.8,15.7.8,8.5,2.3,17.6,5.1,25.7,6.4,18.3,19.3,32.8,24.6,51.7,5.9,21.3,4.2,42.6-1.7,63.6l24.8,2.8c6.6.7,5-41.3,4.5-45.4-3.1-24.4-14.1-45.1-28.1-64.9-10.5-14.7-23.7-30.7-29.5-48-.1-.4-.3-.9-.4-1.3Z"/>
              <path id="Path_1111" class="st8" d="M807.8,334c2.7,2,4.8,6,7.2,8.5,4.1,4.6,8.8,8.7,13.9,12.3,11.4,7.6,24.9,10.2,36,18.6,12.4,9.5,20.6,22.2,26.3,36.5l15.2-9c4-2.4-14.8-25.4-16.9-27.5-12.1-12.4-27.3-19.4-43.6-24.5-12.2-3.8-26.5-7.1-37.2-14.4-.3-.2-.6-.4-.8-.6Z"/>
              <path id="Path_1112" class="st8" d="M1056.3,357.1c-3,1.5-5.9,5-8.7,7-5,3.7-10.3,6.9-16,9.4-12.7,5.2-26.4,5.2-38.9,11.4-14,6.9-24.5,17.8-32.8,30.8l-13.1-11.8c-3.5-3.1,19.4-22.1,21.8-23.7,14.3-9.9,30.5-13.8,47.5-15.7,12.7-1.4,27.3-2,39.2-7,.3-.1.6-.3.9-.4Z"/>
              <path id="Path_1113" class="st8" d="M994.6,250.2c-1.3,4.6-.3,10.9-.8,15.7-.8,8.5-2.2,17.6-5.1,25.7-6.4,18.3-19.3,32.8-24.5,51.8-5.8,21.3-4.2,42.6,1.8,63.6l-24.8,2.8c-6.6.7-5.1-41.3-4.6-45.4,3-24.4,14-45.2,28-65,10.4-14.8,23.6-30.7,29.4-48.1.2-.4.3-.8.4-1.2Z"/>
              <path id="Path_1114" class="st8" d="M854,298.7s21.1,31.1,49.6,53,11.3,54,11.3,54h-19.7s5.9-19.7-6.3-36c-12.2-16.3-32.9-40.6-35-71Z"/>
              <path id="Path_1115" class="st8" d="M934.2,250.2c-1,1.2-1.2,4.8-1.5,6.3-1.1,5.4-1.7,11-1.7,16.5,0,12.1,5.1,23.2,8.4,34.6,4.7,16.4,9.5,33.4,9.8,50.5.1,8.1-.7,16.1-2.4,24-.6,2.6-5,23.2-7.6,23.3-6.8.3-14.1,1.4-20.9.9-.1-3.3,3-8.1,4-11.4,6.5-20,2.3-37-1.5-56.9-2.9-15.8-3.2-32.1-.9-48,1.9-13.8,5.1-28.8,14.2-39.7Z"/>
              <path id="Path_1116" class="st8" d="M1022.4,304.9c-2,3.1-2.8,8-4.3,11.4-2.6,6.3-5.9,12.3-9.9,17.8-9.1,12-22.1,19.7-30.4,32.5-9.4,14.4-13.2,30.6-13.8,47.6l-19-3.8c-5-1,6-31.8,7.4-34.7,8-17.3,21.1-30.1,36.2-41.5,11.2-8.5,24.8-17.1,33.2-28.6.2-.3.4-.6.6-.9Z"/>
              <g id="Group_607">
                <path id="Path_1117" class="st10" d="M989.7,395.2h0c0,2.7-25.9,4.8-57.9,4.8s-57.9-2.2-57.9-4.8c0,0-8.2,9.1-9.4,20.3,0,0,0,.2,0,.3,0,5,30.1,9.1,67.3,9.1s67.3-4.1,67.3-9.1h0c-1-11.4-9.4-20.6-9.4-20.6Z"/>
                <path id="Path_1118" class="st17" d="M931.9,402.7c26.8,0,47.4-2.1,56.7-4.1,1.1-.2,1.8-1.3,1.6-2.3,0,0,0,0,0,0,0-.4-.2-.7-.5-1h0c0,2.7-25.9,4.8-57.9,4.8s-57.9-2.2-57.9-4.8h0c-.9,1-.9,2.6.2,3.5.3.3.8.5,1.2.6,12.7,2.2,33.6,3.4,56.7,3.4Z"/>
              </g>
            </g>
          </g>
        </g>
      </g>
    </g>
  </g>
</svg>