<?xml version="1.0" encoding="UTF-8"?>
<svg id="Layer_1" xmlns="http://www.w3.org/2000/svg" version="1.1" xmlns:xlink="http://www.w3.org/1999/xlink" viewBox="0 0 876.3 800">
  <!-- Generator: Adobe Illustrator 29.1.0, SVG Export Plug-In . SVG Version: 2.1.0 Build 142)  -->
  <defs>
    <style>
      .st0 {
        fill: #aacef2;
      }

      .st1 {
        fill: #423565;
      }

      .st2 {
        fill: #cde2ff;
      }

      .st3 {
        fill: #353b6e;
      }

      .st4 {
        fill: #808bd1;
      }

      .st5, .st6 {
        fill: #fff;
      }

      .st7 {
        fill: #404884;
      }

      .st8 {
        fill: none;
      }

      .st6, .st9, .st10 {
        display: none;
      }

      .st11 {
        fill: #08314d;
      }

      .st12 {
        fill: #85a0b3;
      }

      .st13 {
        fill: #ffd2a1;
      }

      .st14 {
        fill: #e06a00;
      }

      .st15 {
        fill: #47708c;
      }

      .st16 {
        fill: #fafcfb;
      }

      .st17, .st10 {
        fill: #f0b480;
      }

      .st18 {
        fill: #e88f3f;
      }

      .st19 {
        fill: #ffd5c0;
      }

      .st20 {
        clip-path: url(#clippath);
      }

      .st21 {
        fill: #0a4267;
      }
    </style>
    <clipPath id="clippath">
      <rect class="st8" x="-403.7" width="1280" height="800"/>
    </clipPath>
  </defs>
  <g id="Layer_2">
    <g id="Vela_UI_Temaplates">
      <g id="Planning_-_Web">
        <g class="st20">
          <g>
            <rect class="st6" x="-403.7" width="1280" height="800"/>
            <rect id="Background-10" class="st10" x="-403.7" width="1280" height="800"/>
            <g id="Planning">
              <g id="Object-7">
                <path id="Path_1209" class="st15" d="M746.1,559c-3.6-5.5-9.6-9.8-19.1-12-58.8-13.7-61.2,83.1-96.2,98-23.7,10-37.2-1.9-57-3.1-13.9,19.5-25.2,40.7-33.8,63.1-4.5,11.8-8.2,23.9-11.2,36.2h84.7c2.9-12.3,6.7-24.4,11.2-36.2,25.8-67.4,72.5-114,121.4-146Z"/>
                <path id="Path_1210" class="st12" d="M573.8,641.8c-5.8-.3-11.7.3-17.3,1.9-40.9,11.5-64.4,57.1-78.4,97.4h50.7c2.9-12.3,6.7-24.4,11.2-36.2,8.5-22.4,19.9-43.6,33.8-63.1Z"/>
                <path id="Path_1211" class="st12" d="M753.8,627.8c-11.7-12.9,5.5-48.9-7.7-68.8-48.9,32.1-95.6,78.7-121.4,146-4.5,11.8-8.2,23.9-11.2,36.2h84.7c2.9-12.3,6.7-24.4,11.2-36.2,10.7-27.9,25.6-53.9,44.4-77.2Z"/>
                <path id="Path_1212" class="st15" d="M814.8,618.2c-21.7-7.5-38.1,19.6-55.8,13.1-2-.7-3.8-1.9-5.3-3.5-18.8,23.2-33.7,49.2-44.4,77.1-4.5,11.8-8.2,23.9-11.2,36.2h84.7c2.9-12.3,6.7-24.4,11.2-36.2,9.6-25,22.6-48.6,38.8-69.9-4.2-7.6-10-14-18-16.8Z"/>
                <path id="Path_1213" class="st12" d="M782.9,741.1h54.5c6-15.5,14.2-44.1,5.9-76.6-2-8-5-19.7-10.5-29.5-16.2,21.4-29.2,44.9-38.8,69.9-4.5,11.8-8.3,23.9-11.2,36.2Z"/>
              </g>
              <g id="Object-8">
                <path id="Path_1652" class="st18" d="M366.2,238.7h176.3c13.3,0,24.1,10.8,24.1,24.1h0v231.6c0,13.3-10.8,24.1-24.1,24.1h-176.3c-13.3,0-24.1-10.8-24.1-24.1h0v-231.6c0-13.3,10.8-24.1,24.1-24.1Z"/>
                <g id="Group_639">
                  <rect id="Rectangle_283" class="st11" x="501.9" y="404.4" width="27.3" height="17.2"/>
                  <rect id="Rectangle_284" class="st11" x="501.9" y="363.4" width="27.3" height="17.2"/>
                  <rect id="Rectangle_285" class="st11" x="501.9" y="322.5" width="27.3" height="17.2"/>
                  <rect id="Rectangle_286" class="st11" x="501.9" y="281.5" width="27.3" height="17.2"/>
                  <rect id="Rectangle_287" class="st11" x="450.2" y="404.4" width="27.3" height="17.2"/>
                  <rect id="Rectangle_288" class="st11" x="450.2" y="445.4" width="27.3" height="17.2"/>
                  <rect id="Rectangle_289" class="st11" x="450.2" y="486.4" width="27.3" height="17.2"/>
                  <rect id="Rectangle_290" class="st11" x="450.2" y="363.4" width="27.3" height="17.2"/>
                  <rect id="Rectangle_291" class="st11" x="450.2" y="322.5" width="27.3" height="17.2"/>
                  <rect id="Rectangle_292" class="st11" x="450.2" y="281.5" width="27.3" height="17.2"/>
                </g>
              </g>
              <g id="Clock">
                <circle id="Ellipse_65" class="st14" cx="316.6" cy="291.6" r="145.2"/>
                <path id="Path_1214" class="st11" d="M316.6,292.2l-5.9-99.4,7.7-24.8,6.5,24.4-8.3,99.7Z"/>
                <path id="Path_1215" class="st11" d="M316.6,292.2l-99.3,5.4-24.7-7.9,24.5-6.4,99.6,8.9Z"/>
              </g>
              <g id="Plant-5" class="st9">
                <g id="Group_640">
                  <path id="Path_1216" class="st3" d="M-132.3,687s42.8-25.5,104.5,0l-51.7,62.3-52.9-62.3Z"/>
                </g>
                <path id="Path_1217" class="st18" d="M-89.2,676.6c-4.4-50.7-37.3-85.3-65.9-123.5-25.6-34.3-47.7-71.1-65.9-109.9-23.9,45.7-20.1,69.1-12.5,82,11.1,18.8,30.6,15.8,39.8,35.6,13.4,28.9-16.1,61.1-3.6,73,10.6,10.1,36.1-9,48.1,3,9.2,9.1-.2,26,10.1,33.8,7.8,6,15.8-1.9,26.7,3.6,15.9,7.9,16.6,33.1,20.2,32.7,2.6-.4,4.3-14.4,3-30.3Z"/>
                <path id="Path_1218" class="st21" d="M-81,713.1c-48.5-104.7-55.7-223.8-20.2-333.5-9.2,41.2-1.9,66.3,6.5,81.6,10.1,18.4,20.7,20.9,25,38.8,6.3,26.9-14.2,36.7-12.7,66.5,1.6,30.2,23.5,35.6,29.3,64.5,3.5,17.3,1.4,44-27.8,82.1Z"/>
                <path id="Path_1219" class="st12" d="M-72.6,706.3c-15-90.4.7-183.2,44.5-263.7-8.9,32.8-5.3,55.9,0,71.3,8.5,24.6,22.1,32,19.6,51.1-2.6,19.6-18.5,22.1-21.4,46.3-2,17,5.2,20.7,0,32.7-6,13.6-18.6,16-20.2,29.7-.8,7,2.2,9.1.6,14.8-2.7,9.6-14,14.9-23.2,17.8Z"/>
                <path id="Path_1220" class="st7" d="M-132.3,687s41.6,21.4,104.5,0l-11.9,98.5h-76l-16.6-98.5Z"/>
              </g>
              <g id="Person-9">
                <path id="Path_1221" class="st7" d="M116.5,766.1l27.3,19h-54v-19.6s8.9-18.4,26.7.6Z"/>
                <path id="Path_1222" class="st7" d="M216.8,766.1l27.3,19h-54v-19.6s8.9-18.4,26.7.6Z"/>
                <path id="Path_1223" class="st3" d="M163.8,521.8s-1.7,105.5-17.6,129.2c-20.3,30.2-25,78.3-30,115.1l-32.2-.5s-5.8-75.4,20.5-113c4.2-5.9,8.3-56.8,6-68.8s-14.9-36.7,3.5-80c18.4-43.3,49.7,18,49.7,18Z"/>
                <path id="Path_1224" class="st7" d="M183,508.9s26.3,112,23.2,128.3c-6.5,33.8,6.5,95,10.1,128.3h-33.8s-28-68.7-11.9-111.7c5.3-14.2-13.1-58.8-19-69.5s-25.5-30.3-21.4-77.2,52.8,1.8,52.8,1.8Z"/>
                <path id="Path_1225" class="st19" d="M225.1,355.1l23.2-56.4,12.1-20.5c1-1.4,2.9-1.8,4.3-.8.2.1.4.3.5.5l8.3,9.1c1.1,1.3,1.1,3.2-.2,4.4h0l-12.5,11-16,70.1-5.9,5.3s-16.7-.6-13.8-22.5Z"/>
                <path id="Path_1226" class="st7" d="M173.5,386.6l51.7-31.5,19,22-71.7,59.6,1-50.1Z"/>
                <path id="Path_1227" class="st19" d="M95.7,398.5l-56.4,49.9c-2.5,3.4-2.7,18.5.9,20.7l73.9,29.2v-19l-39.2-24.4,11.5-9.7c11.2-11.9,16.1-25.5,11-41l-1.8-5.7Z"/>
                <path id="Path_1228" class="st7" d="M93.3,391.9l-54,56.4c-2.5,3.4-2.7,18.5.9,20.7l34.7-14.1,14.2-8.9c11.2-11.9,13.4-26.3,8.2-41.8l-4.1-12.3Z"/>
                <path id="Path_1229" class="st19" d="M152.7,331.4s14.2,30.3,6.5,34.4-13.7,4.2-13.7,4.2l2.4,23.8s-20.8,8.9-26.7-3.6c0,0,8.3-13.7,9.5-23.8,0,0-19-32.7,22-35.1Z"/>
                <path id="Path_1230" class="st1" d="M146.7,349.8s-4.8-3.6-4.8-1.2,0,8.3,4.8,8.9c0,0-6.5,11.9-21.4,7.1s-14.8-22-1.8-32.1,26.7-17.2,35,1.2c0,0-13.6,8.9-11.8,16Z"/>
                <path id="Path_1231" class="st3" d="M84.1,410.1c.5-13.1,11.3-23.5,24.4-23.5h64.9c7.1,0-5.3,55.8.6,85.5s10.7,43.9,10.7,43.9l-76.6,1.2s-25.5-67.5-24.1-107.2Z"/>
                <path id="Path_1232" class="st4" d="M74.9,454.9l-31.8-10.8s-8,3.1-5.3,8.7c0,0-4.5,4.3-.3,7.6,0,0-3,5.1,3,8.7l36.6-13s-1-1.8-2.2-1.2Z"/>
                <path id="Path_1233" class="st4" d="M225.1,355.1s-3.9-.6-3.7,2.1c0,0-3.1-.9-3,2.1,0,0-2.5-.9-3.6,2.2l16.8,26.3s4.8.6,4.8-3c0,0,3.6.6,3.6-1.8,0,0,5.9-3,5.3-5.3l-20.2-22.5Z"/>
              </g>
              <g id="Person-10">
                <path id="Path_1234" class="st19" d="M605.2,429.3l-43.4-13.1-.2.4-.3-.3-13.2-4.3-9.5-13s-18.4,2.4-20.8,2.4c0,0-1.2,4.8,7.7,3.6s11.9-1.2,11.9,5.3-1.8,8.9-5.9,11.9-3.6,5.9-3.6,5.9l15.4-3.6,13.1,5.3h0l43,19.3c4.1-5.8,6.1-12.8,5.8-19.9Z"/>
                <path id="Path_1235" class="st19" d="M590.3,619.9s-9.5,105.7-16,117,13.1,18.4,17.8,4.8c4.7-13.6,32.1-88.5,22-117-10.1-28.5-23.8-4.8-23.8-4.8Z"/>
                <path id="Path_1236" class="st19" d="M655,631.2s50.7,93.2,51.5,106.2c.8,13,22.8,13.5,19.1-.5-3.6-14-24.1-96.8-48.3-114.9-24.2-18.1-22.4,9.2-22.4,9.2Z"/>
                <path id="Path_1237" class="st14" d="M596.6,756.2v17.8h-9.5l-.2-17.4s-17.4,17.3-32.1,17.3h-9.5s21.7-7.8,27.5-35.3h19.5c.7,1.3,4.7,9,4.3,17.6Z"/>
                <path id="Path_1238" class="st14" d="M730.4,756.2v17.8h-9.5l-.2-17.4s-17.4,17.3-32.1,17.3h-9.5s24.1-13,27.4-35.3h19.5c.7,1.3,4.7,9,4.3,17.6Z"/>
                <path id="Path_1239" class="st14" d="M620.3,319.1c10.1-5.9,25.5,2.3,29.7,7.1,5.8,6.6,5.1,12.2,10.1,21.4,5.2,9.6,11.4,3.2,18.7,13.4,7.4,10.3,8.1,22.2,8.3,26.1.7,11.8-3.2,13.1-1.2,19.6,4.1,13.3,21.1,10.5,26.1,22.6,5.9,14-13.4,26.7-7.1,43.4,3.5,9.3,10.7,8.6,13.1,17.8,2.9,11.4-4.4,26.7-15.4,31.5-13.9,6-34.3-4.5-43.9-19-22-33.3,16.2-82.6-4.8-110.5-3.2-4.2-37.8,35.1-35.3,21.7,2.4-13.1-8.9-22-11.3-32.7-2.4-11,10.6-15.5,1.8-37.4-4.8-11.9,6.5-22.1,11.3-24.9Z"/>
                <path id="Path_1240" class="st7" d="M592.7,425.4s9.8,9.5,6.7,23.8l46.6-34s14.4-29-2-34c-10.9-3.3-51.3,44.2-51.3,44.2Z"/>
                <path id="Path_1241" class="st19" d="M619.1,328s-13.1,30.3,5.3,29.7c0,0,8.9,8.3,2.4,29.1-6.2,19.7,32.4,22.3,35.3,9.8,3-12.5-10.1-21.4-17.2-30.3-7.1-8.9-4.8-14.9-4.8-14.9,0,0,6.5-10.1-2.4-7.7,0,0-14,1.5-18.7-15.7Z"/>
                <path id="Path_1242" class="st3" d="M626.8,386.8s-9.2,12.2-15.7,22.3c-6.5,10.1,10.1,26.7,7.1,35.6-3,8.9-21.4,77.8-33.3,177,0,0,47.5,26.1,95.6,1.2,0,0,10.1-120.5-21.4-165.1,0,0,6.3-45.8,3.9-64.4-3.6-26.7-36.2-6.5-36.2-6.5Z"/>
                <path id="Path_1243" class="st7" d="M628.6,455.1s3.7,15.5,24.5,3.2l7.8-46.7c1.7-9.9-.8-18.6-6.8-26.6-4.2-5.6-13.1-4.1-16.6,0-7.5,8.7-8.8,70.1-8.8,70.1Z"/>
                <g id="Folder">
                  <rect id="Rectangle_293" class="st18" x="601.8" y="468.1" width="55.2" height="76.6" transform="translate(-8.2 1002.5) rotate(-76.7)"/>
                </g>
                <path id="Path_1244" class="st19" d="M628.7,454.9l-9.4,63.2-8,11.8c-.7,1-.4,2.4.6,3.1.2.1.4.2.6.3,2.3,1.4,4.7,2.5,7.3,3.3,3.2.9,6.5,1.5,9.8,1.8,1.2.4,2.4-.3,2.7-1.5,0,0,0,0,0,0,0-.2.1-.5,0-.7l-.8-15.5,22-63.6s-11.9-19-24.9-2.1Z"/>
              </g>
              <g id="Pencil">
                <path id="Path_1245" class="st13" d="M766.3,193.8l-1.2,9.4c-1.9.2-3.9-.5-5.1-2l5.5-7.7.8.3Z"/>
                <path id="Path_1246" class="st14" d="M763.3,202.8c.6-1.6-1.1-2.3-1.7-.7.6-1.5-1.1-2.2-1.7-.7l-15.9,40.4,1.7.7,1.7.7,1.7.7,15.9-40.4c.6-1.6-1.1-2.3-1.7-.7Z"/>
                <rect id="Rectangle_294" class="st14" x="765" y="191.9" width="2.9" height=".8" transform="translate(306.2 834.7) rotate(-68.5)"/>
              </g>
              <g id="Paper">
                <rect id="Rectangle_295" class="st0" x="676.2" y="198.4" width="73.8" height="96.4" transform="translate(-25.2 91.1) rotate(-7.2)"/>
              </g>
              <g id="Chart-3">
                <path id="Path_1247" class="st2" d="M741.1,267.5c.5-.1.8-.6.8-1.1l-26.6-96.4c-.2-.5-.7-.7-1.2-.6l-64.4,17.8c-.5.1-.8.6-.8,1.1l26.6,96.4c.2.5.7.7,1.2.6l64.4-17.8Z"/>
                <g id="Group_645">
                  <path id="Path_1248" class="st15" d="M692.1,208.6l7-12.2-3.8-13.6c-7.5,2.4-11.7,10.4-9.4,17.9,1,3.3,3.2,6.1,6.2,7.9h0Z"/>
                  <path id="Path_1249" class="st0" d="M696.2,182.5l3.7,13.3,13.3-3.7c-2.3-7.2-9.7-11.4-17-9.6h0Z"/>
                  <path id="Path_1250" class="st21" d="M700.8,196.6l8,4.6,3.4,1.9c1.6-3.1,2.1-6.6,1.2-10l-12.6,3.5Z"/>
                  <path id="Path_1251" class="st14" d="M699.7,197.1l-6.8,12c6.7,3.5,14.9,1.2,18.8-5.2l-12-6.8Z"/>
                </g>
                <rect id="Rectangle_296" class="st15" x="711.6" y="206.4" width="8.9" height="30" transform="translate(-33.2 202.1) rotate(-15.7)"/>
                <rect id="Rectangle_297" class="st15" x="704.7" y="219.5" width="8.9" height="24.7" transform="translate(-36.1 197) rotate(-15.4)"/>
                <rect id="Rectangle_298" class="st15" x="694.9" y="232.4" width="8.9" height="14.8" transform="translate(-38.6 195) rotate(-15.5)"/>
                <rect id="Rectangle_299" class="st15" x="683.1" y="230.1" width="8.9" height="20.3" transform="translate(-39.2 191.8) rotate(-15.5)"/>
                <rect id="Rectangle_300" class="st15" x="671.2" y="227.4" width="8.9" height="26.2" transform="translate(-39.6 188.7) rotate(-15.5)"/>
                <path id="Path_1252" class="st14" d="M664.7,203.1l3.9-14.9,11,10.8-3.4.9,4.8,17.4-8.1,2.2-4.8-17.4-3.3.9Z"/>
                <rect id="Rectangle_301" class="st7" x="675.7" y="252.3" width="54.9" height="2.1" transform="translate(-42.1 196.5) rotate(-15.5)"/>
                <rect id="Rectangle_302" class="st7" x="673.7" y="252" width="54.8" height="2.1" transform="translate(-42.3 199.3) rotate(-15.7)"/>
                <rect id="Rectangle_303" class="st7" x="678.2" y="261.6" width="54.9" height="2.1" transform="translate(-44.5 197.5) rotate(-15.5)"/>
                <rect id="Rectangle_304" class="st7" x="679.5" y="266.2" width="54.9" height="2.1" transform="translate(-45.7 198) rotate(-15.5)"/>
              </g>
              <g id="Chart-4">
                <rect id="Rectangle_305" class="st18" x="106.9" y="237.6" width="11.5" height="57"/>
                <rect id="Rectangle_306" class="st18" x="92.1" y="256.3" width="11.5" height="38.2"/>
                <rect id="Rectangle_307" class="st18" x="77.2" y="267.5" width="11.5" height="27"/>
                <rect id="Rectangle_308" class="st18" x="62.4" y="276.9" width="11.5" height="17.7"/>
                <rect id="Rectangle_309" class="st18" x="47.6" y="284.1" width="11.5" height="10.5"/>
                <path id="Path_1253" class="st0" d="M79.5,242.9l3.4-2.2-.9-3.8-4-.4-1.8-2.5.8-4-3.3-2-3.1,2.5-3-.5-2.2-3.4-3.8.9-.4,4-2.5,1.8-4-.8-2,3.3,2.5,3.2-.5,3-3.4,2.3.9,3.8,4,.4,1.8,2.5-.8,4,3.3,2,3.2-2.6,3,.5,2.2,3.4,3.8-.9.4-4,2.5-1.8,4,.8,2-3.3-2.5-3.1.5-3.1ZM72,249.2c-3.7,2.7-9,1.9-11.7-1.9s-1.9-9,1.9-11.7c3.7-2.7,9-1.9,11.7,1.9h0c2.7,3.7,1.9,9-1.8,11.7,0,0,0,0,0,0Z"/>
                <circle id="Ellipse_66" class="st12" cx="67.1" cy="242.4" r="6.3"/>
                <g id="Group_648">
                  <path id="Path_1254" class="st14" d="M110.8,219c-13.5,27.4-35.4,46.5-63.3,55.6v4.3c29.6-9.2,52.8-29.2,67-58.1l-3.7-1.8Z"/>
                  <g id="Group_647">
                    <path id="Path_1255" class="st14" d="M116.2,226.1l4.5-22.4-15.1,17.2,10.6,5.2Z"/>
                  </g>
                </g>
              </g>
              <g id="Target-3" class="st9">
                <ellipse id="Ellipse_67-3" class="st18" cx="318.3" cy="615.2" rx="37.5" ry="39.2"/>
                <path id="Path_1256" class="st16" d="M318.3,646.5c-8,0-15.7-3.3-21.2-9.2-11.7-12.4-11.7-31.9,0-44.3,11-11.7,29.5-12.3,41.2-1.3h0c.4.4.9.8,1.3,1.3,11.7,12.4,11.7,31.9,0,44.3-5.5,5.8-13.2,9.2-21.2,9.2Z"/>
                <path id="Path_1257" class="st18" d="M318.3,638.7c-6.1,0-11.8-2.5-16-6.9-8.8-9.3-8.8-23.9,0-33.2,8.3-8.8,22.1-9.2,30.9-.9.3.3.6.6,1,.9,8.8,9.3,8.8,23.9,0,33.2-4.1,4.4-9.9,6.9-15.9,6.9Z"/>
                <path id="Path_1258" class="st16" d="M318.3,630.9c-4,0-7.9-1.7-10.6-4.6-5.9-6.2-5.9-15.9,0-22.2,5.5-5.9,14.7-6.1,20.6-.6l.6.6c5.9,6.2,5.9,15.9,0,22.2-2.8,2.9-6.6,4.6-10.6,4.6Z"/>
                <path id="Path_1259" class="st14" d="M318.3,621.5c-1.6,0-3.2-.7-4.3-1.8-2.4-2.5-2.4-6.5,0-9,2.2-2.4,5.9-2.5,8.3-.3l.3.3c2.4,2.5,2.4,6.5,0,9-1.1,1.2-2.7,1.8-4.3,1.8Z"/>
                <path id="Path_1260" class="st1" d="M354.1,577.8c-.4-.4-1-.4-1.4,0,0,0,0,0,0,0h0l-3.4,3.5-.8-3.2-7.9,8.3.4,3.6-23.5,24.4c-.4.4-.4,1.1,0,1.6.4.4,1,.4,1.4,0,0,0,0,0,0,0h0l23.5-24.5,3.5.4,7.9-8.3-3-.8,3.3-3.4c.3-.5.3-1.1,0-1.6Z"/>
              </g>
              <g id="Cloud-13">
                <path id="Path_1205-2" class="st17" d="M235.1,119.7h-127.3s10.1-72.5,37.5-25.9c0,0,23.3-63.9,47.7,3.6,0,0,42.1-14.2,42.1,22.3Z"/>
              </g>
              <g id="Cloud-14">
                <path id="Path_1206-2" class="st5" d="M726.3,73.8h-127.4s10.2-72.5,37.5-25.9c0,0,23.3-63.9,47.7,3.5,0,0,42.1-14.2,42.1,22.3Z"/>
              </g>
            </g>
          </g>
        </g>
      </g>
    </g>
  </g>
</svg>